<?xml version="1.0" standalone="no"?>
<!DOCTYPE svg PUBLIC "-//W3C//DTD SVG 20010904//EN"
 "http://www.w3.org/TR/2001/REC-SVG-20010904/DTD/svg10.dtd">
<svg version="1.0" xmlns="http://www.w3.org/2000/svg"
 width="759.000000pt" height="1280.000000pt" viewBox="0 0 759.000000 1280.000000"
 preserveAspectRatio="xMidYMid meet">
<metadata>
Created by potrace 1.15, written by Peter Selinger 2001-2017
</metadata>
<g transform="translate(0.000000,1280.000000) scale(0.100000,-0.100000)"
fill="#000000" stroke="none">
<path d="M3470 12795 c0 -10 46 -23 195 -53 245 -51 545 -104 805 -142 164
-25 624 -62 940 -76 228 -10 867 35 975 68 l40 13 -55 3 c-30 1 -163 13 -295
27 -584 60 -1485 126 -2128 155 -246 11 -477 13 -477 5z"/>
<path d="M3775 12604 c97 -82 403 -304 640 -466 461 -313 1322 -805 1865
-1065 497 -239 1011 -404 1250 -403 58 1 63 2 46 15 -10 7 -52 26 -95 40 -93
33 -229 91 -381 162 -889 419 -2104 1047 -2885 1493 -269 154 -447 250 -461
250 -5 -1 5 -12 21 -26z"/>
<path d="M6540 12493 c0 -70 386 -854 558 -1133 140 -227 417 -618 429 -606
15 14 -120 327 -283 656 -167 339 -334 631 -497 873 -118 176 -207 266 -207
210z"/>
<path d="M6145 12414 c-515 -122 -734 -178 -1025 -261 -212 -60 -193 -64 110
-22 329 46 635 126 881 232 193 82 198 90 34 51z"/>
<path d="M6402 12370 c-43 -197 -68 -447 -59 -605 5 -96 40 -294 56 -323 17
-30 38 773 24 903 l-9 80 -12 -55z"/>
<path d="M5472 11293 c-22 -38 -166 -291 -321 -563 -155 -272 -285 -498 -289
-501 -4 -4 -79 2 -167 12 -783 92 -1484 143 -2152 158 -1173 26 -2049 -86
-2348 -300 -221 -159 -7 -356 540 -499 296 -77 577 -119 1085 -162 194 -16
1060 -16 1285 0 510 38 874 79 1264 143 68 11 126 18 128 15 3 -3 -43 -90
-102 -193 -85 -150 -149 -286 -317 -673 -372 -859 -749 -1742 -745 -1746 11
-12 901 1617 1360 2491 l94 179 89 18 c345 72 644 143 939 224 88 24 164 44
168 44 5 0 -31 -57 -79 -127 -499 -728 -1469 -1827 -2688 -3043 -362 -361
-366 -364 -385 -345 -10 11 -490 598 -1067 1305 -1569 1924 -1754 2150 -1760
2150 -11 0 58 -114 164 -275 239 -359 886 -1191 1631 -2095 465 -565 1119
-1344 1130 -1347 9 -2 483 523 882 977 903 1032 1576 1872 1974 2465 111 166
225 348 221 352 -2 2 -66 -12 -142 -31 -309 -76 -1014 -209 -1030 -193 -3 3
45 102 106 221 111 216 112 216 145 216 18 0 165 -16 327 -35 381 -46 460 -51
223 -16 -254 38 -505 71 -538 71 -15 0 -27 4 -27 9 0 5 39 89 86 188 188 390
306 663 353 817 22 72 27 141 12 151 -6 3 -28 -25 -49 -62z m-2417 -953 c416
-25 525 -32 770 -51 378 -28 1006 -87 1013 -93 5 -6 -16 -45 -155 -287 l-123
-217 -83 -11 c-839 -109 -1959 -142 -2782 -81 -699 52 -1170 159 -1290 291
-43 48 -45 82 -6 136 130 179 636 295 1431 327 162 7 1056 -3 1225 -14z"/>
<path d="M5843 10083 c9 -2 23 -2 30 0 6 3 -1 5 -18 5 -16 0 -22 -2 -12 -5z"/>
<path d="M2867 5725 c-312 -1574 -342 -2536 -122 -3940 49 -318 198 -1175 203
-1171 2 3 -6 76 -17 163 -77 591 -105 1175 -105 2148 0 928 25 1651 95 2768
11 180 19 337 17 350 -2 12 -34 -131 -71 -318z"/>
<path d="M3111 6030 c0 -8 6 -114 14 -235 39 -578 93 -1634 115 -2230 47
-1292 38 -2293 -26 -2978 -9 -93 -13 -171 -10 -174 3 -4 6 1 6 11 0 9 18 148
40 309 220 1618 210 2676 -45 4642 -52 396 -92 677 -94 655z"/>
<path d="M2208 1073 c6 -2 18 -2 25 0 6 3 1 5 -13 5 -14 0 -19 -2 -12 -5z"/>
<path d="M2005 1049 c-436 -67 -657 -109 -900 -171 -337 -85 -503 -167 -521
-254 -19 -96 202 -199 622 -289 475 -102 1151 -193 1684 -225 215 -13 757 -13
952 0 539 37 1016 144 1323 298 176 88 271 169 259 220 -12 47 -32 79 -71 110
-196 154 -759 260 -1598 302 -281 13 -427 18 -422 14 2 -2 57 -11 123 -20 176
-22 316 -46 869 -145 770 -138 746 -132 789 -191 19 -26 19 -30 3 -62 -74
-155 -587 -329 -1197 -405 -481 -61 -1254 -67 -1760 -15 -552 56 -948 167
-1069 300 -71 76 -67 122 14 201 115 111 426 222 860 307 212 41 224 44 190
44 -16 0 -84 -8 -150 -19z"/>
</g>
</svg>
