<?xml version="1.0" standalone="no"?>
<!DOCTYPE svg PUBLIC "-//W3C//DTD SVG 20010904//EN"
 "http://www.w3.org/TR/2001/REC-SVG-20010904/DTD/svg10.dtd">
<svg version="1.0" xmlns="http://www.w3.org/2000/svg"
 width="670.000000pt" height="373.000000pt" viewBox="0 0 670.000000 373.000000"
 preserveAspectRatio="xMidYMid meet">
<metadata>
Created by potrace 1.16, written by Peter Selinger 2001-2019
</metadata>
<g transform="translate(0.000000,373.000000) scale(0.100000,-0.100000)"
fill="#000000" stroke="none">
<path d="M2863 2920 c-25 -10 -51 -34 -76 -70 -15 -21 -17 -53 -17 -222 0
-125 -4 -198 -10 -198 -5 0 -10 -6 -10 -14 0 -8 -4 -16 -8 -18 -5 -1 -32 -34
-62 -73 -29 -38 -75 -97 -101 -130 -47 -60 -47 -61 -33 -95 22 -51 50 -70 109
-70 70 0 115 41 115 104 0 14 4 27 9 30 5 3 18 23 29 43 10 21 34 65 53 98 48
87 81 147 106 194 l22 40 -72 4 -72 3 73 2 72 2 0 30 0 30 75 0 75 0 0 -30 c0
-29 0 -29 68 -33 l67 -3 -71 -2 -72 -2 -11 -42 c-25 -88 -30 -105 -67 -203
-20 -55 -39 -125 -41 -156 -5 -55 -4 -58 30 -83 51 -39 114 -37 156 6 21 22
31 42 31 62 0 17 7 83 15 146 26 207 35 286 35 313 0 27 1 27 70 27 l70 0 0
-32 c0 -33 10 -117 35 -313 8 -61 15 -124 15 -141 0 -20 10 -41 31 -62 26 -27
39 -32 78 -32 34 0 54 7 76 24 27 22 30 30 29 78 -1 45 -32 155 -73 260 -21
53 -51 166 -51 191 0 27 0 27 75 27 l75 0 0 -30 0 -29 73 -4 72 -3 -72 -2 -73
-2 23 -41 c25 -46 58 -106 106 -194 19 -33 43 -77 53 -98 11 -20 24 -40 29
-43 5 -3 9 -16 9 -30 0 -63 45 -104 115 -104 59 0 87 19 109 70 14 34 14 35
-33 95 -26 33 -72 92 -101 130 -30 39 -57 72 -62 73 -4 2 -8 10 -8 18 0 8 -4
14 -10 14 -6 0 -10 73 -10 198 0 169 -2 201 -17 222 -26 37 -52 60 -79 70 -32
13 -941 12 -971 0z"/>
<path d="M2770 1505 c0 -548 1 -603 17 -625 26 -37 52 -60 79 -70 35 -14 934
-13 969 0 30 11 52 31 77 69 17 24 18 72 18 626 -1 564 -2 598 -17 573 -9 -15
-27 -32 -40 -39 l-23 -12 0 -454 0 -453 -500 0 -500 0 0 453 0 454 -23 12
c-13 7 -31 24 -40 39 -15 25 -16 -9 -17 -573z"/>
<path d="M3187 1383 c-12 -11 -8 -108 5 -121 17 -17 299 -17 316 0 13 13 17
114 4 122 -5 3 -6 -9 -4 -25 4 -25 1 -30 -14 -29 -50 6 -84 -1 -84 -15 0 -8
-4 -15 -10 -15 -5 0 -10 9 -10 19 0 11 -4 23 -10 26 -6 4 -10 -5 -10 -19 0
-19 -5 -26 -20 -26 -11 0 -20 7 -20 15 0 17 -6 18 -35 4 -19 -9 -18 -9 3 -5
12 2 22 0 22 -5 0 -5 -11 -9 -25 -9 -21 0 -25 5 -25 28 0 15 -4 22 -8 16 -4
-6 -22 -11 -41 -12 -31 -1 -33 1 -29 29 5 31 5 32 -5 22z"/>
</g>
</svg>
